<?xml version="1.0" encoding="UTF-8"?>
<!DOCTYPE svg PUBLIC "-//W3C//DTD SVG 1.1//EN" "http://www.w3.org/Graphics/SVG/1.1/DTD/svg11.dtd">
<!-- Creator: CorelDRAW 2021 (64-Bit) -->
<svg xmlns="http://www.w3.org/2000/svg" xml:space="preserve" width="64px" height="64px" version="1.1" style="shape-rendering:geometricPrecision; text-rendering:geometricPrecision; image-rendering:optimizeQuality; fill-rule:evenodd; clip-rule:evenodd"
viewBox="0 0 20.16 20.16"
 xmlns:xlink="http://www.w3.org/1999/xlink"
 xmlns:xodm="http://www.corel.com/coreldraw/odm/2003">
 <defs>
  <style type="text/css">
   <![CDATA[
    .fil0 {fill:#FEFEFE}
    .fil1 {fill:#9128A8}
   ]]>
  </style>
 </defs>
 <g id="Layer_x0020_1">
  <metadata id="CorelCorpID_0Corel-Layer"/>
  <g id="_1938964618656">
   <rect class="fil0" width="20.16" height="20.16" rx="7.63" ry="7.63"/>
   <path class="fil1" d="M9.4 0.83c-1.43,0.12 -2.51,0.46 -3.62,1.02 -1.01,0.52 -2.01,1.32 -2.6,2.04 -0.47,0.58 -0.55,0.6 -0.99,1.31 -1.7,2.68 -1.87,6.35 -0.35,9.17 0.71,1.3 1.09,1.66 2.02,2.61 0.22,0.23 1.06,0.82 1.32,0.99 1.6,1.01 3.57,1.5 5.56,1.38 1.86,-0.12 3.64,-0.86 5.01,-1.92 0.74,-0.57 1.17,-1.04 1.73,-1.75 0.18,-0.22 0.31,-0.44 0.47,-0.69 1.01,-1.54 1.54,-3.66 1.38,-5.58 -0.14,-1.82 -0.82,-3.68 -1.92,-5.01 -0.38,-0.46 -0.71,-0.84 -1.12,-1.21 -1.51,-1.35 -3.98,-2.62 -6.89,-2.36zm0.1 1.33c-1.16,0.09 -2.2,0.4 -3.09,0.87 -0.53,0.28 -1.17,0.72 -1.62,1.11l-0.62 0.63c-0.57,0.57 -1.23,1.72 -1.52,2.46 -0.39,1.05 -0.58,2.2 -0.5,3.43 0.28,4.19 3.93,7.66 8.48,7.35 1.62,-0.1 3.12,-0.7 4.3,-1.64 0.36,-0.3 0.72,-0.59 1.05,-0.94 0.04,-0.05 0.06,-0.09 0.1,-0.14l0.34 -0.41c0.42,-0.56 0.83,-1.24 1.07,-1.92 0.19,-0.54 0.33,-0.95 0.43,-1.56 0.28,-1.77 0.01,-3.44 -0.78,-4.97 -0.59,-1.15 -1.38,-1.98 -2.29,-2.69 -0.49,-0.38 -1.31,-0.84 -1.91,-1.07 -1,-0.4 -2.25,-0.61 -3.44,-0.51zm0.04 1.17l-6.23 6.23c-0.23,-0.07 -0.4,-0.12 -0.62,0.02 -0.4,0.25 -0.34,0.81 -0.01,1.01 0.28,0.17 0.38,0.08 0.63,0.03l0.38 0.38c0.14,0.13 0.26,0.25 0.4,0.39l4.68 4.69c0.25,0.25 0.55,0.52 0.78,0.78 -0.31,0.8 0.64,1.2 1.04,0.61 0.14,-0.2 0.09,-0.4 0.02,-0.61l6.23 -6.25c0.22,0.07 0.4,0.13 0.62,-0.01 0.41,-0.27 0.35,-0.81 0.01,-1.02 -0.25,-0.14 -0.37,-0.09 -0.64,-0.02l-6.22 -6.23c0.05,-0.25 0.13,-0.37 -0.02,-0.62 -0.08,-0.15 -0.26,-0.28 -0.48,-0.29 -0.26,-0.01 -0.43,0.12 -0.52,0.25 -0.2,0.27 -0.08,0.4 -0.05,0.66zm-5.93 6.62c-0.01,0.26 -0.03,0.24 -0.07,0.45l6.22 6.23c0.34,-0.08 0.25,-0.12 0.61,-0.01l6.25 -6.23c-0.07,-0.18 -0.08,-0.19 -0.07,-0.41l-6.02 -3.02c-0.13,0.08 -0.22,0.19 -0.45,0.19 -0.23,0 -0.32,-0.1 -0.44,-0.19 -0.16,0.03 -4.02,2 -4.52,2.24l-1.51 0.75zm8.67 2.89l0.01 -4.38 -4.41 -0.01 0 4.4 4.4 -0.01zm-2.04 -9.2l0 2.34c0.32,0.07 0.43,0.31 0.43,0.7l5.61 2.79c-0.22,-0.28 -0.47,-0.5 -0.71,-0.74l-5.2 -5.18c-0.09,0.04 -0.1,0.01 -0.13,0.09zm-6.38 5.83l5.62 -2.8c0,-0.38 0.13,-0.61 0.44,-0.7l0 -2.37 -0.15 -0.06 -5.91 5.93zm5.34 2.05c0.2,0.02 1.63,0.03 1.76,-0.01l0 -1.73 -1.76 -0.01 0 1.75zm3.08 1.32l-4.4 0.01 0 -4.4 4.41 0.01c-0.01,-0.01 -0.02,-0.02 -0.02,-0.01l-3.29 -0.03c-0.23,0 -0.93,-0.03 -1.11,0.02 -0.04,0.26 -0.03,4.31 0,4.43l4.28 0.01c0.13,0 0.11,-0.01 0.13,-0.04zm-9.34 -3.03c-0.38,0.11 -0.23,0.66 0.16,0.55 0.32,-0.1 0.21,-0.65 -0.16,-0.55zm7.08 -7.07c-0.38,0.08 -0.25,0.65 0.13,0.55 0.36,-0.09 0.23,-0.63 -0.13,-0.55zm7.06 7.07c-0.38,0.1 -0.23,0.66 0.16,0.55 0.32,-0.1 0.21,-0.65 -0.16,-0.55zm-7.07 -3.53c-0.39,0.11 -0.22,0.66 0.16,0.54 0.33,-0.1 0.21,-0.64 -0.16,-0.54zm0.01 10.59c-0.35,0.08 -0.29,0.65 0.13,0.56 0.33,-0.07 0.24,-0.64 -0.13,-0.56z"/>
  </g>
 </g>
</svg>
