<?xml version="1.0" encoding="UTF-8"?>
<!DOCTYPE svg PUBLIC "-//W3C//DTD SVG 1.1//EN" "http://www.w3.org/Graphics/SVG/1.1/DTD/svg11.dtd">
<!-- Creator: CorelDRAW 2021 (64-Bit) -->
<svg xmlns="http://www.w3.org/2000/svg" xml:space="preserve" width="191px" height="168px" version="1.1" style="shape-rendering:geometricPrecision; text-rendering:geometricPrecision; image-rendering:optimizeQuality; fill-rule:evenodd; clip-rule:evenodd"
viewBox="0 0 33.52 29.41"
 xmlns:xlink="http://www.w3.org/1999/xlink"
 xmlns:xodm="http://www.corel.com/coreldraw/odm/2003">
 <defs>
  <style type="text/css">
   <![CDATA[
    .fil0 {fill:#9128A8}
    .fil1 {fill:#F37020}
   ]]>
  </style>
 </defs>
 <g id="Layer_x0020_1">
  <metadata id="CorelCorpID_0Corel-Layer"/>
  <path class="fil0" d="M15.96 0.04c-1.71,0.15 -3,0.55 -4.33,1.23 -1.2,0.61 -2.4,1.57 -3.1,2.43 -0.57,0.69 -0.66,0.72 -1.19,1.56 -2.02,3.2 -2.24,7.58 -0.42,10.95 0.85,1.56 1.3,1.99 2.42,3.12 0.26,0.27 1.26,0.98 1.57,1.18 1.91,1.21 4.27,1.79 6.64,1.65 2.22,-0.14 4.35,-1.03 5.99,-2.3 0.88,-0.68 1.4,-1.23 2.07,-2.09 0.2,-0.26 0.37,-0.52 0.56,-0.81 1.2,-1.85 1.83,-4.38 1.65,-6.67 -0.18,-2.18 -0.99,-4.39 -2.3,-5.98 -0.45,-0.56 -0.85,-1.01 -1.34,-1.45 -1.8,-1.61 -4.76,-3.12 -8.22,-2.82zm0.11 1.59c-1.38,0.11 -2.62,0.48 -3.69,1.04 -0.64,0.34 -1.4,0.86 -1.93,1.32l-0.75 0.75c-0.68,0.68 -1.46,2.06 -1.8,2.95 -0.48,1.24 -0.71,2.63 -0.61,4.09 0.34,5.01 4.7,9.15 10.13,8.79 1.94,-0.13 3.72,-0.84 5.13,-1.97 0.44,-0.36 0.87,-0.7 1.26,-1.13 0.05,-0.05 0.07,-0.1 0.12,-0.16l0.41 -0.49c0.49,-0.67 0.99,-1.48 1.27,-2.29 0.23,-0.65 0.4,-1.14 0.51,-1.87 0.34,-2.11 0.02,-4.1 -0.93,-5.93 -0.7,-1.37 -1.64,-2.37 -2.72,-3.21 -0.59,-0.46 -1.57,-1 -2.29,-1.28 -1.19,-0.47 -2.68,-0.73 -4.11,-0.61zm0.05 1.39l-7.44 7.45c-0.28,-0.09 -0.48,-0.15 -0.74,0.02 -0.48,0.3 -0.41,0.97 -0.01,1.21 0.33,0.2 0.45,0.09 0.75,0.03l0.46 0.45c0.15,0.16 0.3,0.31 0.47,0.47l5.59 5.61c0.3,0.3 0.66,0.62 0.93,0.93 -0.37,0.96 0.77,1.43 1.24,0.73 0.17,-0.25 0.11,-0.48 0.03,-0.73l7.44 -7.47c0.26,0.08 0.47,0.16 0.74,-0.01 0.49,-0.33 0.42,-0.97 0.01,-1.22 -0.29,-0.17 -0.44,-0.11 -0.76,-0.03l-7.44 -7.43c0.07,-0.3 0.16,-0.44 -0.01,-0.74 -0.1,-0.18 -0.32,-0.34 -0.58,-0.35 -0.31,-0.01 -0.51,0.14 -0.63,0.3 -0.23,0.32 -0.08,0.48 -0.05,0.78zm-7.08 7.92c-0.02,0.3 -0.03,0.28 -0.09,0.53l7.43 7.44c0.41,-0.1 0.3,-0.14 0.73,-0.01l7.46 -7.44c-0.07,-0.22 -0.09,-0.23 -0.08,-0.49l-7.19 -3.61c-0.16,0.1 -0.26,0.23 -0.53,0.23 -0.28,0 -0.39,-0.11 -0.53,-0.22 -0.19,0.03 -4.8,2.38 -5.4,2.67l-1.8 0.9zm10.35 3.45l0.01 -5.24 -5.26 -0.01 0 5.26 5.25 -0.01zm-2.44 -10.99l0 2.79c0.39,0.09 0.52,0.38 0.52,0.84l6.7 3.33c-0.27,-0.33 -0.56,-0.6 -0.85,-0.88l-6.21 -6.19c-0.11,0.05 -0.11,0.01 -0.16,0.11zm-7.61 6.96l6.71 -3.34c0,-0.45 0.15,-0.73 0.52,-0.84l0 -2.83 -0.17 -0.07 -7.06 7.08zm6.37 2.45c0.25,0.02 1.96,0.04 2.1,-0.01l0 -2.06 -2.1 -0.02 0 2.09zm3.68 1.58l-5.25 0.01 0 -5.26 5.26 0.01c0,0 -0.02,-0.02 -0.02,-0.01l-3.93 -0.03c-0.28,0 -1.11,-0.03 -1.33,0.02 -0.04,0.3 -0.03,5.14 0.01,5.29l5.11 0.01c0.15,0 0.12,-0.01 0.15,-0.04zm-11.15 -3.62c-0.46,0.13 -0.27,0.79 0.19,0.65 0.38,-0.12 0.25,-0.77 -0.19,-0.65zm8.46 -8.45c-0.46,0.1 -0.31,0.78 0.15,0.66 0.42,-0.1 0.27,-0.75 -0.15,-0.66zm8.42 8.45c-0.45,0.12 -0.27,0.79 0.2,0.65 0.37,-0.11 0.25,-0.77 -0.2,-0.65zm-8.44 -4.22c-0.46,0.13 -0.26,0.78 0.2,0.65 0.38,-0.12 0.24,-0.77 -0.2,-0.65zm0.01 12.65c-0.41,0.1 -0.34,0.77 0.16,0.67 0.39,-0.08 0.29,-0.77 -0.16,-0.67z"/>
  <path class="fil1" d="M21.06 29.21l1.45 0c0.07,-0.11 0.14,-0.37 0.2,-0.52 0.03,-0.1 0.06,-0.18 0.09,-0.28 0.04,-0.12 0.04,-0.2 0.13,-0.25l2.13 0c0.08,0.26 0.27,0.84 0.38,1.05l1.63 0c0,-0.09 -2.02,-5.25 -2.11,-5.38l-1.8 0c-0.1,0.21 -0.18,0.45 -0.27,0.67 -0.09,0.22 -0.17,0.44 -0.26,0.67 -0.24,0.62 -1.57,3.88 -1.57,4.04zm-14.85 -3.84c-1.22,0.15 -2.01,0.94 -1.8,2.34 0.17,1.13 1.19,1.79 2.52,1.59 1.18,-0.17 1.98,-0.97 1.77,-2.33 -0.16,-1.15 -1.17,-1.75 -2.49,-1.6zm8.04 1.15l1.2 0.2c0.19,-0.3 0.15,-0.47 0.63,-0.49 0.38,-0.02 0.72,0.01 0.69,0.43 -0.3,0.17 -1.3,0.26 -1.73,0.4 -1.29,0.44 -1.16,2.05 0.21,2.31 0.92,0.17 1.28,-0.21 1.69,-0.37l0.11 0.31 1.36 0c-0.11,-0.31 -0.26,-0.42 -0.3,-0.87 -0.11,-1.31 0.34,-2.46 -0.59,-2.97 -0.6,-0.33 -2.22,-0.42 -2.87,0.27 -0.16,0.16 -0.38,0.47 -0.4,0.78zm-14.25 2.69l3.92 0 0.01 -1.03 -2.42 -0.02 -0.01 -4.33 -1.49 0 -0.01 5.38zm13.31 -1.46l-1.41 0c-0.01,0.45 -0.2,0.86 -0.7,0.73 -0.34,-0.09 -0.42,-0.66 -0.4,-1.07 0.02,-0.4 0.01,-0.96 0.28,-1.15 0.15,-0.11 0.43,-0.1 0.59,0 0.15,0.09 0.22,0.26 0.23,0.51l1.41 0.02c0,-1.12 -1.11,-1.54 -2.25,-1.42 -1.08,0.11 -1.72,0.85 -1.71,2.01 0.02,1.19 0.57,1.89 1.79,1.93 1.15,0.05 2.14,-0.44 2.17,-1.56zm17.97 -2.84l0 0.56 -0.72 0.01 0 0.88 0.71 0c0.13,0.69 -0.17,1.9 0.14,2.49 0.32,0.63 1.31,0.49 2.09,0.41l0.01 -0.84c-0.98,0.02 -0.8,0.22 -0.81,-2.06l0.81 0 0.01 -0.88 -0.82 -0.01 -0.01 -1.09 -1.41 0.53zm-12.26 4.29l1.42 0.01c0,-0.36 0.03,-5.16 -0.02,-5.38l-1.39 0 -0.01 5.37zm10.05 -3.08l-0.03 -0.63 -1.42 -0.02c0.03,0.66 -0.01,3.5 0.04,3.74l1.39 0c0.1,-0.5 -0.06,-1.36 0.04,-1.92 0.14,-0.84 0.87,-0.66 1.23,-0.73l0 -1.19c-0.27,-0.04 -0.61,0.06 -0.81,0.18 -0.23,0.14 -0.31,0.3 -0.44,0.57zm-22.74 0.1c-0.45,0.18 -0.54,0.78 -0.49,1.37 0.05,0.53 0.29,1.07 0.91,0.88 0.69,-0.22 0.62,-1.69 0.29,-2.08 -0.14,-0.16 -0.43,-0.29 -0.71,-0.17zm16.95 0.9l1.4 0c-0.01,-0.15 -0.64,-2.18 -0.69,-2.23 -0.06,0.1 -0.7,2.12 -0.71,2.23zm-6.5 0.43c-0.28,0.05 -0.66,0.12 -0.93,0.2 -0.32,0.09 -0.5,0.32 -0.23,0.59 0.22,0.21 0.58,0.16 0.84,0.02 0.32,-0.17 0.32,-0.36 0.32,-0.81z"/>
 </g>
</svg>
